<svg width="1280" height="320" viewBox="0 0 1280 320" xmlns="http://www.w3.org/2000/svg">
  <rect width="1280" height="320" fill="#5B4FC4"/>

  <!-- Subtle pattern dots -->
  <g opacity="0.06">
    <circle cx="50" cy="50" r="2" fill="#fff"/><circle cx="130" cy="30" r="2" fill="#fff"/>
    <circle cx="200" cy="70" r="2" fill="#fff"/><circle cx="80" cy="120" r="2" fill="#fff"/>
    <circle cx="170" cy="150" r="2" fill="#fff"/><circle cx="40" cy="200" r="2" fill="#fff"/>
    <circle cx="150" cy="250" r="2" fill="#fff"/><circle cx="100" cy="280" r="2" fill="#fff"/>
    <circle cx="1100" cy="40" r="2" fill="#fff"/><circle cx="1180" cy="80" r="2" fill="#fff"/>
    <circle cx="1050" cy="120" r="2" fill="#fff"/><circle cx="1200" cy="160" r="2" fill="#fff"/>
    <circle cx="1130" cy="220" r="2" fill="#fff"/><circle cx="1230" cy="260" r="2" fill="#fff"/>
    <circle cx="1070" cy="280" r="2" fill="#fff"/><circle cx="1160" cy="300" r="2" fill="#fff"/>
  </g>

  <!-- Faded data structures left -->
  <g opacity="0.12">
    <rect x="40" y="80" width="120" height="10" rx="3" fill="#fff"/>
    <rect x="40" y="96" width="55" height="8" rx="2" fill="#fff"/>
    <rect x="105" y="96" width="55" height="8" rx="2" fill="#fff"/>
    <rect x="40" y="110" width="26" height="6" rx="2" fill="#fff"/>
    <rect x="70" y="110" width="26" height="6" rx="2" fill="#fff"/>
    <rect x="105" y="110" width="26" height="6" rx="2" fill="#fff"/>
    <rect x="134" y="110" width="26" height="6" rx="2" fill="#fff"/>
    <rect x="40" y="122" width="26" height="5" rx="2" fill="#fff" opacity="0.6"/>
    <rect x="70" y="122" width="26" height="5" rx="2" fill="#fff" opacity="0.6"/>
    <rect x="105" y="122" width="26" height="5" rx="2" fill="#fff" opacity="0.6"/>
    <rect x="134" y="122" width="26" height="5" rx="2" fill="#fff" opacity="0.6"/>
  </g>

  <!-- Faded data structures right -->
  <g opacity="0.12">
    <rect x="1120" y="160" width="120" height="10" rx="3" fill="#fff"/>
    <rect x="1120" y="176" width="55" height="8" rx="2" fill="#fff"/>
    <rect x="1185" y="176" width="55" height="8" rx="2" fill="#fff"/>
    <rect x="1120" y="190" width="26" height="6" rx="2" fill="#fff"/>
    <rect x="1150" y="190" width="26" height="6" rx="2" fill="#fff"/>
    <rect x="1185" y="190" width="26" height="6" rx="2" fill="#fff"/>
    <rect x="1214" y="190" width="26" height="6" rx="2" fill="#fff"/>
    <rect x="1120" y="202" width="26" height="5" rx="2" fill="#fff" opacity="0.6"/>
    <rect x="1150" y="202" width="26" height="5" rx="2" fill="#fff" opacity="0.6"/>
    <rect x="1185" y="202" width="26" height="5" rx="2" fill="#fff" opacity="0.6"/>
    <rect x="1214" y="202" width="26" height="5" rx="2" fill="#fff" opacity="0.6"/>
  </g>

  <!-- Icon -->
  <g transform="translate(440, 60)">
    <rect x="0" y="0" width="200" height="200" rx="38" fill="#4A3FB5"/>
    <!-- Beacon -->
    <circle cx="100" cy="30" r="10" fill="#5DCAA5"/>
    <circle cx="100" cy="30" r="5" fill="#fff"/>
    <line x1="100" y1="16" x2="100" y2="22" stroke="#5DCAA5" stroke-width="2" stroke-linecap="round"/>
    <line x1="100" y1="38" x2="100" y2="44" stroke="#5DCAA5" stroke-width="2" stroke-linecap="round"/>
    <line x1="86" y1="30" x2="92" y2="30" stroke="#5DCAA5" stroke-width="2" stroke-linecap="round"/>
    <line x1="108" y1="30" x2="114" y2="30" stroke="#5DCAA5" stroke-width="2" stroke-linecap="round"/>
    <!-- Stem -->
    <line x1="100" y1="44" x2="100" y2="55" stroke="#5DCAA5" stroke-width="2" stroke-linecap="round" opacity="0.6"/>
    <!-- Tier 1 -->
    <rect x="15" y="55" width="170" height="16" rx="3" fill="#fff" opacity="0.9"/>
    <rect x="20" y="58" width="22" height="10" rx="2" fill="#5DCAA5" opacity="0.8"/>
    <rect x="46" y="58" width="14" height="10" rx="2" fill="#7F77DD" opacity="0.7"/>
    <rect x="64" y="58" width="28" height="10" rx="2" fill="#5DCAA5" opacity="0.65"/>
    <rect x="96" y="58" width="18" height="10" rx="2" fill="#7F77DD" opacity="0.6"/>
    <rect x="118" y="58" width="24" height="10" rx="2" fill="#5DCAA5" opacity="0.7"/>
    <rect x="146" y="58" width="16" height="10" rx="2" fill="#7F77DD" opacity="0.6"/>
    <rect x="166" y="58" width="14" height="10" rx="2" fill="#5DCAA5" opacity="0.55"/>
    <!-- Tier 2 -->
    <rect x="15" y="76" width="80" height="14" rx="3" fill="#fff" opacity="0.7"/>
    <rect x="20" y="79" width="18" height="8" rx="1.5" fill="#5DCAA5" opacity="0.6"/>
    <rect x="42" y="79" width="24" height="8" rx="1.5" fill="#7F77DD" opacity="0.5"/>
    <rect x="70" y="79" width="12" height="8" rx="1.5" fill="#5DCAA5" opacity="0.45"/>
    <rect x="105" y="76" width="80" height="14" rx="3" fill="#fff" opacity="0.7"/>
    <rect x="110" y="79" width="16" height="8" rx="1.5" fill="#7F77DD" opacity="0.6"/>
    <rect x="130" y="79" width="22" height="8" rx="1.5" fill="#5DCAA5" opacity="0.5"/>
    <rect x="156" y="79" width="14" height="8" rx="1.5" fill="#7F77DD" opacity="0.45"/>
    <!-- Tier 3 -->
    <rect x="15" y="96" width="38" height="12" rx="2" fill="#fff" opacity="0.5"/>
    <rect x="57" y="96" width="38" height="12" rx="2" fill="#fff" opacity="0.5"/>
    <rect x="105" y="96" width="38" height="12" rx="2" fill="#fff" opacity="0.5"/>
    <rect x="147" y="96" width="38" height="12" rx="2" fill="#fff" opacity="0.5"/>
    <!-- Tier 4 -->
    <rect x="15" y="114" width="38" height="10" rx="2" fill="#fff" opacity="0.3"/>
    <rect x="57" y="114" width="38" height="10" rx="2" fill="#fff" opacity="0.3"/>
    <rect x="105" y="114" width="38" height="10" rx="2" fill="#fff" opacity="0.3"/>
    <rect x="147" y="114" width="38" height="10" rx="2" fill="#fff" opacity="0.3"/>
    <!-- Tier 5 ghost -->
    <rect x="18" y="130" width="32" height="8" rx="2" fill="#fff" opacity="0.15"/>
    <rect x="60" y="130" width="32" height="8" rx="2" fill="#fff" opacity="0.15"/>
    <rect x="108" y="130" width="32" height="8" rx="2" fill="#fff" opacity="0.15"/>
    <rect x="150" y="130" width="32" height="8" rx="2" fill="#fff" opacity="0.15"/>
    <!-- Traversals -->
    <path d="M60 71 L40 76" fill="none" stroke="#5DCAA5" stroke-width="1.2" stroke-linecap="round" opacity="0.5"/>
    <path d="M140 71 L160 76" fill="none" stroke="#5DCAA5" stroke-width="1.2" stroke-linecap="round" opacity="0.5"/>
    <path d="M40 90 L30 96" fill="none" stroke="#5DCAA5" stroke-width="1" stroke-linecap="round" opacity="0.4"/>
    <path d="M80 90 L95 96" fill="none" stroke="#5DCAA5" stroke-width="1" stroke-linecap="round" opacity="0.4"/>
    <path d="M140 90 L125 96" fill="none" stroke="#5DCAA5" stroke-width="1" stroke-linecap="round" opacity="0.4"/>
    <path d="M170 90 L175 96" fill="none" stroke="#5DCAA5" stroke-width="1" stroke-linecap="round" opacity="0.4"/>
  </g>

  <!-- Wordmark -->
  <text x="680" y="150" font-family="system-ui, -apple-system, 'Segoe UI', sans-serif" font-size="56" font-weight="700" fill="#fff">Clear<tspan fill="#C4BFFF">Memory</tspan><tspan fill="#5DCAA5">AI</tspan></text>

  <!-- Tagline -->
  <text x="680" y="190" font-family="system-ui, -apple-system, 'Segoe UI', sans-serif" font-size="18" font-weight="400" fill="#fff" opacity="0.7" letter-spacing="2">Total recall. Zero confusion.</text>

  <!-- Divider -->
  <line x1="680" y1="210" x2="920" y2="210" stroke="#fff" stroke-width="0.5" opacity="0.2"/>

  <!-- Mission -->
  <text x="680" y="240" font-family="system-ui, -apple-system, 'Segoe UI', sans-serif" font-size="14" font-weight="400" fill="#fff" opacity="0.45">The memory engine for ClearPathAI.</text>
  <text x="680" y="260" font-family="system-ui, -apple-system, 'Segoe UI', sans-serif" font-size="14" font-weight="400" fill="#fff" opacity="0.45">Traverse, recall, and surface what matters.</text>
</svg>
