<svg width="260" height="40" viewBox="0 0 260 40" xmlns="http://www.w3.org/2000/svg">
  <rect x="2" y="2" width="36" height="36" rx="8" fill="#5B4FC4"/>
  <!-- Cross beacon -->
  <circle cx="20" cy="10" r="3" fill="#5DCAA5"/>
  <circle cx="20" cy="10" r="1.5" fill="#fff"/>
  <line x1="20" y1="5" x2="20" y2="7" stroke="#5DCAA5" stroke-width="1" stroke-linecap="round"/>
  <line x1="20" y1="13" x2="20" y2="14.5" stroke="#5DCAA5" stroke-width="1" stroke-linecap="round"/>
  <line x1="15" y1="10" x2="17" y2="10" stroke="#5DCAA5" stroke-width="1" stroke-linecap="round"/>
  <line x1="23" y1="10" x2="25" y2="10" stroke="#5DCAA5" stroke-width="1" stroke-linecap="round"/>
  <!-- Data rows -->
  <rect x="7" y="16" width="26" height="3.5" rx="1" fill="#fff" opacity="0.9"/>
  <rect x="8" y="16.5" width="6" height="2.5" rx="0.8" fill="#5DCAA5" opacity="0.8"/>
  <rect x="15" y="16.5" width="4" height="2.5" rx="0.8" fill="#7F77DD" opacity="0.7"/>
  <rect x="20" y="16.5" width="7" height="2.5" rx="0.8" fill="#5DCAA5" opacity="0.65"/>
  <rect x="28" y="16.5" width="4" height="2.5" rx="0.8" fill="#7F77DD" opacity="0.6"/>
  <!-- Tier 2 -->
  <rect x="7" y="21" width="12" height="3" rx="1" fill="#fff" opacity="0.7"/>
  <rect x="8" y="21.5" width="4" height="2" rx="0.6" fill="#5DCAA5" opacity="0.6"/>
  <rect x="13" y="21.5" width="5" height="2" rx="0.6" fill="#7F77DD" opacity="0.5"/>
  <rect x="21" y="21" width="12" height="3" rx="1" fill="#fff" opacity="0.7"/>
  <rect x="22" y="21.5" width="5" height="2" rx="0.6" fill="#7F77DD" opacity="0.6"/>
  <rect x="28" y="21.5" width="4" height="2" rx="0.6" fill="#5DCAA5" opacity="0.5"/>
  <!-- Tier 3 -->
  <rect x="7" y="25.5" width="5.5" height="2.5" rx="0.8" fill="#fff" opacity="0.5"/>
  <rect x="14" y="25.5" width="5.5" height="2.5" rx="0.8" fill="#fff" opacity="0.5"/>
  <rect x="21" y="25.5" width="5.5" height="2.5" rx="0.8" fill="#fff" opacity="0.5"/>
  <rect x="28" y="25.5" width="5.5" height="2.5" rx="0.8" fill="#fff" opacity="0.5"/>
  <!-- Tier 4 fade -->
  <rect x="7" y="29.5" width="5.5" height="2" rx="0.8" fill="#fff" opacity="0.3"/>
  <rect x="14" y="29.5" width="5.5" height="2" rx="0.8" fill="#fff" opacity="0.3"/>
  <rect x="21" y="29.5" width="5.5" height="2" rx="0.8" fill="#fff" opacity="0.3"/>
  <rect x="28" y="29.5" width="5.5" height="2" rx="0.8" fill="#fff" opacity="0.3"/>
  <!-- Ghost rows -->
  <rect x="7" y="33" width="5.5" height="1.5" rx="0.6" fill="#fff" opacity="0.15"/>
  <rect x="14" y="33" width="5.5" height="1.5" rx="0.6" fill="#fff" opacity="0.15"/>
  <rect x="21" y="33" width="5.5" height="1.5" rx="0.6" fill="#fff" opacity="0.15"/>
  <rect x="28" y="33" width="5.5" height="1.5" rx="0.6" fill="#fff" opacity="0.15"/>
  <!-- Traversal lines -->
  <path d="M20 14.5 L20 16" fill="none" stroke="#5DCAA5" stroke-width="0.8" stroke-linecap="round" opacity="0.6"/>
  <path d="M13 19.5 L10 21" fill="none" stroke="#5DCAA5" stroke-width="0.5" stroke-linecap="round" opacity="0.4"/>
  <path d="M27 19.5 L30 21" fill="none" stroke="#5DCAA5" stroke-width="0.5" stroke-linecap="round" opacity="0.4"/>
  <!-- Wordmark -->
  <text x="48" y="27" font-family="system-ui, -apple-system, 'Segoe UI', sans-serif" font-size="22" font-weight="600" fill="#1a1a1a">Clear<tspan fill="#7F77DD">Memory</tspan><tspan fill="#1D9E75">AI</tspan></text>
</svg>
